<svg width="512" height="512" viewBox="0 0 512 512" fill="none" xmlns="http://www.w3.org/2000/svg">
<path d="M255.996 106C173.291 106 105.996 173.295 105.996 256C105.996 338.705 173.291 406 255.996 406C338.701 406 405.996 338.705 405.996 256C405.996 173.295 338.701 106 255.996 106Z" fill="white"/>
<path d="M411.696 346C396.096 373.299 372.997 396.099 345.696 412L435.996 436.3L411.696 346Z" fill="white"/>
<path d="M255.996 0L209.797 82.299C224.497 78.1 240.095 76 255.996 76C271.897 76 287.496 78.1 302.196 82.299L255.996 0Z" fill="white"/>
<path d="M75.996 76L100.296 166C115.897 138.699 138.397 116.199 165.696 100.3L75.996 76Z" fill="white"/>
<path d="M82.297 209.5L0.296997 256L82.297 302.5C78.097 287.8 75.996 272.2 75.996 256C75.996 239.799 78.096 224.2 82.297 209.5Z" fill="white"/>
<path d="M100.296 346L75.996 436.3L166.296 412C138.996 396.099 115.897 373.299 100.296 346Z" fill="white"/>
<path d="M255.996 436C239.797 436 224.196 433.9 209.196 429.699L255.996 512L302.796 429.699C287.796 433.899 272.195 436 255.996 436Z" fill="white"/>
<path d="M346.159 100.452C373.299 116.247 395.915 138.882 411.673 166.048L436.099 76.044L346.159 100.452Z" fill="white"/>
<path d="M511.703 256.146L429.752 209.756C433.693 224.542 435.996 239.989 435.996 256C435.996 272.135 433.663 287.703 429.662 302.593L511.703 256.146Z" fill="white"/>
</svg>
